<?xml version="1.0" standalone="no"?><!DOCTYPE svg PUBLIC "-//W3C//DTD SVG 1.1//EN" "http://www.w3.org/Graphics/SVG/1.1/DTD/svg11.dtd"><svg t="1766192913060" class="icon" viewBox="0 0 1024 1024" version="1.1" xmlns="http://www.w3.org/2000/svg" p-id="14652" xmlns:xlink="http://www.w3.org/1999/xlink" width="200" height="200"><path d="M398.947 830.518c-20.709-6.135-51.892-12.323-80.511-24.523-49.358-21.046-91.832-53.119-127.697-93.27-6.47-7.245-12.123-16.001-15.487-25.048-4.815-12.947-2.476-25.789 9.726-34.302 11.974-8.354 24.529-7.344 35.625 1.823 17.551 14.5 34.313 29.956 51.916 44.387 36.458 29.891 77.887 49.867 125.003 53.688 15.571 1.265 34.291-3.022 47.38-11.354 27.449-17.475 52.003-39.462 77.956-59.321 25.581-19.578 51.696-38.365 84.905-42.766 38.026-5.034 72.855 7.121 106.25 22.56 47.566 21.988 89.282 53.222 126.258 90.069 9.104 9.071 14.537 23.731 17.373 36.758 4.496 20.647-12.441 35.031-32.915 27.979-12.292-4.236-23.722-12.382-34.064-20.624-32.882-26.203-65.629-51.868-104.265-70.093-45.07-21.261-85.352-17.111-124.094 12.896-24.474 18.955-48.765 38.177-73.775 56.405-23.679 17.254-48.571 32.481-89.584 34.736zM858.862 357.792c-0.063 15.973-17.012 27.303-34.318 20.449-12.714-5.034-24.548-13.341-35.343-21.977-34.693-27.752-69.529-54.383-111.135-72.21-39.696-17.008-74.876-12.735-108.647 11.566-24.173 17.392-48.642 34.674-70.912 54.346-51.297 45.305-107.307 47.861-167.798 22.861-54.407-22.484-100.692-56.316-140.292-99.486-5.798-6.323-10.61-14.027-14.088-21.885-5.963-13.472-4.738-26.851 7.661-36.316 12.944-9.883 26.432-7.786 38.468 2.351 16.528 13.917 32.25 28.821 49.08 42.351 37.048 29.788 78.127 51.984 126.397 54.568 15.738 0.843 34.364-3.297 47.441-11.724 27.86-17.944 51.839-41.875 79.516-60.161 24.001-15.857 49.604-31.851 76.83-39.667 42.068-12.08 83.021 3.684 118.83 24.335 40.193 23.181 77.046 52.327 114.455 80.086 16.129 11.97 24.451 29.588 23.855 50.513z" fill="#2c2c2c" p-id="14653"></path><path d="M865.295 578.731C864 591 847.171 597.439 839.938 597.21c-12.963-0.404-27.396-4.787-38.255-11.98-32.514-21.532-62.721-46.576-95.432-67.779-57.015-36.957-110.834-30.076-161.258 15.027-18.663 16.696-39.851 30.538-59.478 46.192-39.383 31.412-82.484 36.81-130.058 22.039-64.878-20.141-117.811-58.04-164.101-106.388-5.567-5.816-10.212-12.869-13.886-20.065-7.704-15.089-4.678-31.168 6.468-39.774 10.934-8.44 27.392-7.036 40.144 3.78 18.699 15.86 36.635 32.687 55.973 47.714 32.271 25.075 68.862 41.224 109.197 48.554 22.474 4.088 43.077-0.647 61.131-14.445 22.262-17.011 45.101-33.492 65.797-52.289 61.351-55.716 129.153-63.297 199.656-23.225 43.295 24.609 83.409 55.353 122.601 86.316 12.215 9.651 28.153 35.576 26.858 47.844z" fill="#2c2c2c" p-id="14654"></path></svg>